<svg version="1.2" xmlns="http://www.w3.org/2000/svg" viewBox="0 0 1000 1000" width="600" height="600">
	<title>3793095</title>
	<style>
		.s0 { fill: #ebebeb } 
		.s1 { fill: #f5f5f5 } 
		.s2 { fill: #f0f0f0 } 
		.s3 { fill: #e6e6e6 } 
		.s4 { fill: #407bff } 
		.s5 { opacity: .7;fill: #ffffff } 
		.s6 { opacity: .2;fill: #407bff } 
		.s7 { opacity: .3;fill: #ffffff } 
		.s8 { opacity: .4;fill: #407bff } 
		.s9 { opacity: .2;fill: #000000 } 
		.s10 { opacity: .2;fill: #ffffff } 
		.s11 { opacity: .3;fill: #407bff } 
		.s12 { opacity: .8;fill: #ffffff } 
		.s13 { fill: #263238 } 
		.s14 { fill: #ffffff } 
		.s15 { opacity: .5;fill: #ffffff } 
		.s16 { opacity: .6;fill: #407bff } 
		.s17 { opacity: .5;fill: #407bff } 
		.s18 { opacity: .6;fill: #ffffff } 
	</style>
	<g id="Background Complete">
		<g id="&lt;Group&gt;">
			<path id="&lt;Compound Path&gt;" fill-rule="evenodd" class="s0" d="m476.8 890.1h-386.2c-6.3 0-11.4-5.1-11.4-11.4v-757.4c0-6.3 5.1-11.4 11.4-11.4h386.2c6.3 0 11.4 5.1 11.4 11.4v757.4c0 6.3-5.1 11.4-11.4 11.4zm-386.2-779.7c-6 0-10.9 4.9-10.9 10.9v757.4c0 6 4.9 10.9 10.9 10.9h386.2c6 0 10.9-4.9 10.9-10.9v-757.4c0-6-4.9-10.9-10.9-10.9z"/>
			<path id="&lt;Compound Path&gt;" fill-rule="evenodd" class="s0" d="m909.4 890.1h-386.2c-6.3 0-11.4-5.1-11.4-11.4v-757.4c0-6.3 5.1-11.4 11.4-11.4h386.2c6.3 0 11.4 5.1 11.4 11.4v757.4c0 6.3-5.1 11.4-11.4 11.4zm-386.2-779.7c-6 0-10.9 4.9-10.9 10.9v757.4c0 6 4.9 10.9 10.9 10.9h386.2c6 0 10.9-4.9 10.9-10.9v-757.4c0-6-4.9-10.9-10.9-10.9z"/>
		</g>
		<g id="&lt;Group&gt;">
			<g id="&lt;Group&gt;">
				<path id="&lt;Path&gt;" class="s0" d="m226.1 336.5l3.2 6.5 7.3 1.1-5.3 5.1 1.3 7.2-6.5-3.4-6.5 3.4 1.3-7.2-5.3-5.1 7.3-1.1z"/>
				<path id="&lt;Path&gt;" class="s1" d="m873.4 645l3.2 6.5 7.3 1.1-5.3 5.1 1.3 7.2-6.5-3.4-6.5 3.4 1.3-7.2-5.3-5.1 7.3-1.1z"/>
				<path id="&lt;Path&gt;" class="s1" d="m745.2 835.1l3.2 6.6 7.3 1-5.3 5.1 1.3 7.2-6.5-3.4-6.5 3.4 1.3-7.2-5.3-5.1 7.3-1z"/>
				<path id="&lt;Path&gt;" class="s0" d="m451.9 220.3l1.2 2.4 2.7 0.4c0.6 0.1 0.9 1 0.4 1.4l-1.9 1.9 0.4 2.7c0.2 0.7-0.5 1.2-1.1 0.9l-2.4-1.3-2.4 1.3c-0.6 0.3-1.3-0.2-1.2-0.9l0.4-2.7-1.9-1.9c-0.5-0.4-0.2-1.3 0.4-1.4l2.7-0.4 1.2-2.4c0.3-0.6 1.2-0.6 1.5 0z"/>
				<path id="&lt;Path&gt;" class="s1" d="m121.6 804l1.2 2.4 2.6 0.4c0.7 0.1 1 1 0.5 1.4l-2 1.9 0.5 2.7c0.1 0.7-0.6 1.2-1.2 0.9l-2.4-1.3-2.4 1.3c-0.6 0.3-1.3-0.2-1.2-0.9l0.5-2.7-1.9-1.9c-0.5-0.4-0.3-1.3 0.4-1.4l2.7-0.4 1.2-2.4c0.3-0.6 1.2-0.6 1.5 0z"/>
				<path id="&lt;Path&gt;" class="s0" d="m175.5 194.6l1.2 2.4 2.7 0.4c0.7 0.1 0.9 0.9 0.4 1.4l-1.9 1.9 0.5 2.7c0.1 0.7-0.6 1.2-1.2 0.8l-2.4-1.2-2.4 1.2c-0.6 0.4-1.3-0.1-1.2-0.8l0.4-2.7-1.9-1.9c-0.5-0.5-0.2-1.3 0.5-1.4l2.6-0.4 1.2-2.4c0.3-0.6 1.2-0.6 1.5 0z"/>
				<path id="&lt;Path&gt;" class="s0" d="m172.3 676.6c0 1.5-1.2 2.7-2.7 2.7-1.5 0-2.6-1.2-2.6-2.7 0-1.4 1.1-2.6 2.6-2.6 1.5 0 2.7 1.2 2.7 2.6z"/>
				<path id="&lt;Path&gt;" class="s0" d="m551.3 343.8c0 1.5-1.1 2.6-2.6 2.6-1.5 0-2.7-1.1-2.7-2.6 0-1.5 1.2-2.7 2.7-2.7 1.5 0 2.6 1.2 2.6 2.7z"/>
				<path id="&lt;Path&gt;" class="s1" d="m413.4 196.8c0 1.5-1.2 2.7-2.6 2.7-1.5 0-2.7-1.2-2.7-2.7 0-1.5 1.2-2.7 2.7-2.7 1.4 0 2.6 1.2 2.6 2.7z"/>
			</g>
			<g id="&lt;Group&gt;">
				<path id="&lt;Path&gt;" class="s2" d="m429 830.8c0-8.2-6.6-14.7-14.7-14.7-8.1 0-14.7 6.5-14.7 14.7 0 8.1 6.6 14.6 14.7 14.6 8.1 0 14.7-6.5 14.7-14.6z"/>
			</g>
			<path id="&lt;Path&gt;" class="s3" d="m409.2 822.2c-3.1 0-6 1-8.4 2.7-0.8 1.8-1.2 3.8-1.2 5.9 0 8.1 6.6 14.6 14.7 14.6 2.7 0 5.3-0.7 7.5-2q0-0.1 0-0.1c1.1-2 1.7-4.3 1.7-6.8 0-7.9-6.4-14.3-14.3-14.3z"/>
		</g>
	</g>
	<g id="404">
		<g id="&lt;Group&gt;">
			<path id="&lt;Compound Path&gt;" fill-rule="evenodd" class="s4" d="m295.4 575.3h-121.7v-55l121.7-144.6h58.2v147.8h30.2v51.8h-30.2v44.9h-58.2zm0-51.8v-75.7l-64.4 75.7z"/>
			<path id="&lt;Compound Path&gt;" fill-rule="evenodd" class="s4" d="m404.6 499q0-68.5 24.7-95.9 24.7-27.4 75.2-27.4 24.3 0 39.9 6 15.5 5.9 25.4 15.5 9.8 9.6 15.5 20.2 5.6 10.6 9.1 24.7 6.7 26.9 6.7 56.1 0 65.4-22.1 95.8-22.2 30.3-76.3 30.3-30.4 0-49.1-9.6-18.7-9.7-30.6-28.4-8.7-13.3-13.6-36.4-4.8-23-4.8-50.9zm66.3 0.2q0 45.9 8.1 62.7 8.1 16.8 23.5 16.8 10.2 0 17.7-7.1 7.4-7.1 11-22.6 3.5-15.4 3.5-48 0-47.9-8.1-64.4-8.2-16.5-24.4-16.5-16.6 0-23.9 16.8-7.4 16.8-7.4 62.3z"/>
			<path id="&lt;Compound Path&gt;" fill-rule="evenodd" class="s4" d="m743.5 575.3h-121.7v-55l121.7-144.6h58.2v147.8h30.2v51.8h-30.2v44.9h-58.2zm0-51.8v-75.7l-64.3 75.7z"/>
		</g>
	</g>
	<g id="Planets">
		<g id="&lt;Group&gt;">
			<g id="&lt;Group&gt;" style="opacity: .3">
				<path id="&lt;Path&gt;" class="s4" d="m401.9 291.2c0 2.1-1.7 3.8-3.7 3.8-2.1 0-3.8-1.7-3.8-3.8 0-2 1.7-3.7 3.8-3.7 2 0 3.7 1.7 3.7 3.7z"/>
				<path id="&lt;Path&gt;" class="s4" d="m148.6 432.3c0 1.4-1.2 2.6-2.7 2.6-1.4 0-2.6-1.2-2.6-2.6 0-1.5 1.2-2.7 2.6-2.7 1.5 0 2.7 1.2 2.7 2.7z"/>
				<path id="&lt;Path&gt;" class="s4" d="m585.9 816.7c0 2.1-1.7 3.8-3.8 3.8-2.1 0-3.8-1.7-3.8-3.8 0-2.1 1.7-3.8 3.8-3.8 2.1 0 3.8 1.7 3.8 3.8z"/>
				<path id="&lt;Path&gt;" class="s4" d="m675.6 664c0 1.5-1.1 2.6-2.6 2.6-1.5 0-2.6-1.1-2.6-2.6 0-1.5 1.1-2.6 2.6-2.6 1.5 0 2.6 1.1 2.6 2.6z"/>
				<path id="&lt;Path&gt;" class="s4" d="m848.3 191.2c0 1.5-1.1 2.7-2.6 2.7-1.5 0-2.6-1.2-2.6-2.7 0-1.4 1.1-2.6 2.6-2.6 1.5 0 2.6 1.2 2.6 2.6z"/>
				<path id="&lt;Path&gt;" class="s4" d="m345.5 137.9c0 1.5-1.2 2.7-2.6 2.7-1.5 0-2.7-1.2-2.7-2.7 0-1.4 1.2-2.6 2.7-2.6 1.4 0 2.6 1.2 2.6 2.6z"/>
				<path id="&lt;Path&gt;" class="s4" d="m558 273.9c0 1.4-1.1 2.6-2.6 2.6-1.5 0-2.7-1.2-2.7-2.6 0-1.5 1.2-2.7 2.7-2.7 1.5 0 2.6 1.2 2.6 2.7z"/>
			</g>
			<g id="&lt;Group&gt;">
				<g id="&lt;Group&gt;">
					<path id="&lt;Path&gt;" class="s4" d="m326.3 232.7c0 24.2-19.6 43.8-43.8 43.8-24.2 0-43.9-19.6-43.9-43.8 0-24.2 19.7-43.8 43.9-43.8 24.2 0 43.8 19.6 43.8 43.8z"/>
					<path id="&lt;Path&gt;" class="s5" d="m326.3 232.7c0 24.2-19.6 43.8-43.8 43.8-24.2 0-43.9-19.6-43.9-43.8 0-24.2 19.7-43.8 43.9-43.8 24.2 0 43.8 19.6 43.8 43.8z"/>
				</g>
				<path id="&lt;Path&gt;" class="s6" d="m267.4 199.7c-6.2 0-12 1.2-17.3 3.5-7.1 7.8-11.4 18.2-11.4 29.5 0 24.2 19.6 43.8 43.8 43.8 6.1 0 12-1.2 17.3-3.5q0 0 0 0c7.1-7.8 11.4-18.2 11.4-29.5 0-24.2-19.6-43.8-43.8-43.8z"/>
				<path id="&lt;Path&gt;" class="s6" d="m263 211.2c0 2.3-1.8 4.1-4 4.1-2.2 0-4-1.8-4-4.1 0-2.2 1.8-4 4-4 2.2 0 4 1.8 4 4z"/>
				<path id="&lt;Path&gt;" class="s6" d="m310.1 207.2c0 2.3-1.8 4-4 4-2.2 0-4-1.7-4-4 0-2.2 1.8-4 4-4 2.2 0 4 1.8 4 4z"/>
				<path id="&lt;Path&gt;" class="s6" d="m302.1 235.8c0 3.6-2.9 6.6-6.5 6.6-3.7 0-6.6-3-6.6-6.6 0-3.6 2.9-6.6 6.6-6.6 3.6 0 6.5 3 6.5 6.6z"/>
				<path id="&lt;Path&gt;" class="s6" d="m281.3 254.5c0 4.8-3.9 8.8-8.8 8.8-4.8 0-8.7-4-8.7-8.8 0-4.8 3.9-8.8 8.7-8.8 4.9 0 8.8 4 8.8 8.8z"/>
			</g>
			<g id="&lt;Group&gt;">
				<g id="&lt;Group&gt;">
					<path id="&lt;Path&gt;" class="s4" d="m802.8 752.5c0 21.2-17.2 38.4-38.4 38.4-21.2 0-38.5-17.2-38.5-38.4 0-21.2 17.3-38.5 38.5-38.5 21.2 0 38.4 17.3 38.4 38.5z"/>
					<path id="&lt;Path&gt;" class="s7" d="m802.8 752.5c0 21.2-17.2 38.4-38.4 38.4-21.2 0-38.5-17.2-38.5-38.4 0-21.2 17.3-38.5 38.5-38.5 21.2 0 38.4 17.3 38.4 38.5z"/>
				</g>
				<path id="&lt;Path&gt;" class="s8" d="m788.7 722.7c-3.5-1.1-7.3-1.6-11.1-1.6-21.2 0-38.5 17.2-38.5 38.4 0 12 5.5 22.8 14.2 29.8 3.5 1.1 7.2 1.7 11.1 1.7 21.2 0 38.4-17.3 38.4-38.5 0-12-5.5-22.8-14.1-29.8z"/>
				<path id="&lt;Path&gt;" class="s4" d="m727.7 763.9c-41.1 19.3-10.5 34.2 47.4 13.4 53.6-19.2 73.9-43.5 26.1-36 2.5 10.2-64.6 36.4-73.5 22.6z"/>
			</g>
		</g>
	</g>
	<g id="Astronaut">
		<g id="&lt;Group&gt;">
			<path id="&lt;Path&gt;" class="s9" d="m788.2 375.7c-53.8 36.3-123.4 84.2-142.6 199.6h-4.1c18.7-114 85.8-163.2 139.6-199.6z"/>
			<g id="&lt;Group&gt;">
				<path id="&lt;Path&gt;" class="s4" d="m510 736.5c-33.9 0-67.6-15.3-83.9-40.3-10.1-15.5-21.9-47.9 13.1-91.2l3.1 2.5c-24.7 30.6-29.3 61.3-12.9 86.5 20 30.6 67.2 46 107.5 35 41.2-11.2 66.3-47.1 68.7-98.4 8.3-175.6 101.6-229.7 169.7-269.2 42.3-24.6 72.9-42.3 66.2-79.7-1-5.2-3-8.8-6.4-11-8.7-5.7-25.7-1.7-45.3 2.8-38.7 9-91.5 21.4-123-32.2l3.4-2.1c30 51.1 79.2 39.6 118.7 30.4 20.5-4.7 38.3-8.9 48.4-2.2 4.3 2.8 7 7.3 8.1 13.6 7.2 40.1-26 59.4-68.1 83.8-67.3 39.1-159.5 92.5-167.7 266-2.5 53.2-28.6 90.4-71.7 102.1-9 2.5-18.5 3.6-27.9 3.6z"/>
				<path id="&lt;Path&gt;" class="s10" d="m510 736.5c-33.9 0-67.6-15.3-83.9-40.3-10.1-15.5-21.9-47.9 13.1-91.2l3.1 2.5c-24.7 30.6-29.3 61.3-12.9 86.5 20 30.6 67.2 46 107.5 35 41.2-11.2 66.3-47.1 68.7-98.4 8.3-175.6 101.6-229.7 169.7-269.2 42.3-24.6 72.9-42.3 66.2-79.7-1-5.2-3-8.8-6.4-11-8.7-5.7-25.7-1.7-45.3 2.8-38.7 9-91.5 21.4-123-32.2l3.4-2.1c30 51.1 79.2 39.6 118.7 30.4 20.5-4.7 38.3-8.9 48.4-2.2 4.3 2.8 7 7.3 8.1 13.6 7.2 40.1-26 59.4-68.1 83.8-67.3 39.1-159.5 92.5-167.7 266-2.5 53.2-28.6 90.4-71.7 102.1-9 2.5-18.5 3.6-27.9 3.6z"/>
			</g>
			<g id="&lt;Group&gt;">
				<g id="&lt;Group&gt;">
					<path id="&lt;Path&gt;" class="s4" d="m625.5 193.9c13.7-0.3 27.2 4.3 27.2 4.3 0 0 21.9 37.5 24.6 46.1-0.9 8.5-15.2 22.4-15.2 22.4z"/>
					<path id="&lt;Path&gt;" class="s7" d="m625.5 193.9c13.7-0.3 27.2 4.3 27.2 4.3 0 0 21.9 37.5 24.6 46.1-0.9 8.5-15.2 22.4-15.2 22.4z"/>
				</g>
				<g id="&lt;Group&gt;">
					<g id="&lt;Group&gt;">
						<path id="&lt;Path&gt;" class="s4" d="m690.7 376.3c-8.3-10.5-16.4-21.2-23.1-32.8q-2.6-4.3-4.8-8.8-1.3-2.6-2.5-5.2c-0.7-1.5-2.3-3.7-2.4-5.3-2.4-25.4 6.3-44-2.1-64.4l-32.9 12.9c0 0 2.8 36.2 9.2 57.9 4 13.5 12.9 25.1 21.6 35.9 2.7 3.4 5.3 6.8 8 10.2 2.6 3.2 5.4 6.1 8 9.3 3.9 4.8 5.2 9.4 2.2 15.1q-0.2 0.5-0.5 0.9c-0.8 1.5 3.1 3.2 5.6 0.1 4.1-5.2 3.4-4.9 6.9-9.3 2.1-2.6 4.6-5.5 6.7-8 2-2.5 2.1-6 0.1-8.5z"/>
						<path id="&lt;Path&gt;" class="s5" d="m690.7 376.3c-8.3-10.5-16.4-21.2-23.1-32.8q-2.6-4.3-4.8-8.8-1.3-2.6-2.5-5.2c-0.7-1.5-2.3-3.7-2.4-5.3-2.4-25.4 6.3-44-2.1-64.4l-32.9 12.9c0 0 2.8 36.2 9.2 57.9 4 13.5 12.9 25.1 21.6 35.9 2.7 3.4 5.3 6.8 8 10.2 2.6 3.2 5.4 6.1 8 9.3 3.9 4.8 5.2 9.4 2.2 15.1q-0.2 0.5-0.5 0.9c-0.8 1.5 3.1 3.2 5.6 0.1 4.1-5.2 3.4-4.9 6.9-9.3 2.1-2.6 4.6-5.5 6.7-8 2-2.5 2.1-6 0.1-8.5z"/>
					</g>
					<path id="&lt;Path&gt;" class="s11" d="m682.6 365.8c-4.4 5.4-13.4 12.3-17.3 15.1q1.3 1.4 2.6 2.9c8.1-5.3 14.5-12.2 17-15q-1.2-1.5-2.3-3z"/>
					<path id="&lt;Path&gt;" class="s11" d="m690.7 376.3q-0.1-0.2-0.3-0.3c-1.3 1.4-2.3 3.7-2.5 6.3-0.1 1.8 0.2 3.4 0.8 4.7q1-1.1 1.9-2.2c2-2.5 2-6 0.1-8.5z"/>
				</g>
				<g id="&lt;Group&gt;">
					<g id="&lt;Group&gt;">
						<path id="&lt;Path&gt;" class="s4" d="m617.7 217.9c-3.5 5-7.5 10-12.8 14.4-2.6 2.2-5.5 4.2-8.8 5.9q-2.5 1.3-5.2 2.2l-1.3 0.5-0.5 0.1q-0.4 0.1-0.9 0.2c-0.6 0.2-1.2 0.3-1.8 0.3-2.1 0.2-3.7-0.1-5-0.4-2.5-0.7-4.2-1.7-5.9-2.6-1.5-0.9-2.9-1.8-4.3-2.8-2.6-2-4.9-4-7.1-6.1-4.4-4.2-8.4-8.6-12-13.5-1.7-2.2-1.2-5.3 1-7 1.7-1.3 4-1.3 5.7-0.2l0.2 0.1c4.7 3 9.4 6.1 14.1 9 2.3 1.3 4.6 2.7 6.9 3.8 1.1 0.6 2.2 1.1 3.2 1.5 0.9 0.3 1.9 0.5 2.1 0.5 0.1 0 0-0.2-0.7-0.1-0.2 0-0.5 0-0.7 0.1q-0.3 0-0.5 0.1c-0.1 0 0.1-0.1 0.1-0.1l0.7-0.3c0.8-0.5 1.7-1 2.5-1.6 1.8-1.2 3.4-2.6 5-4.2 3.3-3.3 6.5-7.4 9.8-11.6l0.1-0.1c3.4-4.3 9.7-5 14-1.6 4.2 3.3 5 9.2 2.1 13.5z"/>
						<path id="&lt;Path&gt;" class="s5" d="m617.7 217.9c-3.5 5-7.5 10-12.8 14.4-2.6 2.2-5.5 4.2-8.8 5.9q-2.5 1.3-5.2 2.2l-1.3 0.5-0.5 0.1q-0.4 0.1-0.9 0.2c-0.6 0.2-1.2 0.3-1.8 0.3-2.1 0.2-3.7-0.1-5-0.4-2.5-0.7-4.2-1.7-5.9-2.6-1.5-0.9-2.9-1.8-4.3-2.8-2.6-2-4.9-4-7.1-6.1-4.4-4.2-8.4-8.6-12-13.5-1.7-2.2-1.2-5.3 1-7 1.7-1.3 4-1.3 5.7-0.2l0.2 0.1c4.7 3 9.4 6.1 14.1 9 2.3 1.3 4.6 2.7 6.9 3.8 1.1 0.6 2.2 1.1 3.2 1.5 0.9 0.3 1.9 0.5 2.1 0.5 0.1 0 0-0.2-0.7-0.1-0.2 0-0.5 0-0.7 0.1q-0.3 0-0.5 0.1c-0.1 0 0.1-0.1 0.1-0.1l0.7-0.3c0.8-0.5 1.7-1 2.5-1.6 1.8-1.2 3.4-2.6 5-4.2 3.3-3.3 6.5-7.4 9.8-11.6l0.1-0.1c3.4-4.3 9.7-5 14-1.6 4.2 3.3 5 9.2 2.1 13.5z"/>
					</g>
					<g id="&lt;Group&gt;">
						<path id="&lt;Path&gt;" class="s4" d="m544.6 204.8l2.3 4c0 0 1.8 5.2 5.4 6.2l9.7-3.2-0.5-0.8q0 0 0 0c-1.2-1.9-1.1-5.5-0.7-8.6 0.5-3-1.1-3.1-2.3-2.4-0.6 0.5-1.1 1.9-1.6 3.3q-0.8-0.9-1.6-1.8l-3-3c-1.3-1.2-3.3-1.3-4.7-0.1l-2.4 2.1c-1.2 1.1-1.5 2.9-0.6 4.3z"/>
						<path id="&lt;Path&gt;" class="s5" d="m544.6 204.8l2.3 4c0 0 1.8 5.2 5.4 6.2l9.7-3.2-0.5-0.8q0 0 0 0c-1.2-1.9-1.1-5.5-0.7-8.6 0.5-3-1.1-3.1-2.3-2.4-0.6 0.5-1.1 1.9-1.6 3.3q-0.8-0.9-1.6-1.8l-3-3c-1.3-1.2-3.3-1.3-4.7-0.1l-2.4 2.1c-1.2 1.1-1.5 2.9-0.6 4.3z"/>
					</g>
				</g>
				<g id="&lt;Group&gt;">
					<path id="&lt;Path&gt;" class="s4" d="m635.3 190.4c-9.2 2.3-22 7.6-30.6 13-3.1 1.9-4.6 5.5-3.9 9 3.8 18.9 12.6 44.2 22.1 60.3l44.2-18.3c0.3-7.8-10.4-33-21.4-57.4-1.9-4.4-5.7-7.7-10.4-6.6z"/>
					<path id="&lt;Path&gt;" class="s12" d="m635.3 190.4c-9.2 2.3-22 7.6-30.6 13-3.1 1.9-4.6 5.5-3.9 9 3.8 18.9 12.6 44.2 22.1 60.3l44.2-18.3c0.3-7.8-10.4-33-21.4-57.4-1.9-4.4-5.7-7.7-10.4-6.6z"/>
				</g>
				<path id="&lt;Path&gt;" class="s11" d="m652.6 212.4l-8.8-2.9c2 5.1 9.1 11.6 14.1 15.4-1.7-4-3.5-8.2-5.3-12.5z"/>
				<g id="&lt;Group&gt;">
					<path id="&lt;Path&gt;" class="s4" d="m632.4 170.6c-3.6-6.9-11.5-10.4-21-9.6-8 0.6-15.1 8.8-14.2 13.2 0.8 4.4 7.5 6.3 8.7 7.8l-5.5 4c-2.8 2-3.3 5.9-1.2 8.6 2.3 3 5.4 6.1 7.2 8.3 15.3-0.4 26.7-6.3 30.8-11.9-1.5-7.2-1.1-13.4-4.8-20.4z"/>
					<path id="&lt;Path&gt;" class="s12" d="m632.4 170.6c-3.6-6.9-11.5-10.4-21-9.6-8 0.6-15.1 8.8-14.2 13.2 0.8 4.4 7.5 6.3 8.7 7.8l-5.5 4c-2.8 2-3.3 5.9-1.2 8.6 2.3 3 5.4 6.1 7.2 8.3 15.3-0.4 26.7-6.3 30.8-11.9-1.5-7.2-1.1-13.4-4.8-20.4z"/>
				</g>
				<path id="&lt;Path&gt;" class="s13" d="m624.9 175c3.1 7.7-0.8 16.5-8.6 19.6-7.8 3-16.5-0.8-19.6-8.6-3-7.8 0.8-16.6 8.6-19.6 7.8-3.1 16.6 0.8 19.6 8.6z"/>
				<g id="&lt;Group&gt;">
					<g id="&lt;Group&gt;">
						<path id="&lt;Path&gt;" class="s4" d="m754.8 355.2c-0.2-6.6-0.5-5.9-0.7-11.5-0.1-3.4-0.2-7.2-0.2-10.5 0-3.2-2.2-5.9-5.4-6.5-2.6-0.6-5.3-1.1-7.9-1.6-3.5-0.8-6.9-1.6-10.3-2.6q-3.9-1.1-7.8-2.5-4.1-1.5-8.2-3.2-4.7-2.1-9.3-4.3-5.2-2.5-10.3-5.1c-13.2-21.8-13.5-36.2-27.6-53l-30.3 13.7c0 0 22.3 39.5 37.4 56.3 8.8 9.6 22.5 14 34.7 17.2 8.8 2.2 17.8 4 26.7 5.6 3.5 0.7 7.3 0.9 10.3 3 2.3 1.6 3.5 4.2 4.2 6.9q0.2 0.8 0.4 1.7c0.3 1.6 4.4 0.4 4.3-3.6z"/>
						<path id="&lt;Path&gt;" class="s12" d="m754.8 355.2c-0.2-6.6-0.5-5.9-0.7-11.5-0.1-3.4-0.2-7.2-0.2-10.5 0-3.2-2.2-5.9-5.4-6.5-2.6-0.6-5.3-1.1-7.9-1.6-3.5-0.8-6.9-1.6-10.3-2.6q-3.9-1.1-7.8-2.5-4.1-1.5-8.2-3.2-4.7-2.1-9.3-4.3-5.2-2.5-10.3-5.1c-13.2-21.8-13.5-36.2-27.6-53l-30.3 13.7c0 0 22.3 39.5 37.4 56.3 8.8 9.6 22.5 14 34.7 17.2 8.8 2.2 17.8 4 26.7 5.6 3.5 0.7 7.3 0.9 10.3 3 2.3 1.6 3.5 4.2 4.2 6.9q0.2 0.8 0.4 1.7c0.3 1.6 4.4 0.4 4.3-3.6z"/>
					</g>
					<path id="&lt;Path&gt;" class="s11" d="m739.4 324.8q-1.8-0.4-3.6-0.8c0.1 6.9-3.2 18.8-4.3 22.4q1.9 0.4 3.8 0.8c3.5-9.5 4-19.6 4.1-22.4z"/>
					<path id="&lt;Path&gt;" class="s11" d="m753.9 333.2c0-3.2-2.2-5.9-5.4-6.5q-0.9-0.2-1.9-0.4c0.2 1.9 1.3 4 3.3 5.8 1.3 1.1 2.7 1.9 4 2.3q0-0.6 0-1.2z"/>
				</g>
				<path id="&lt;Path&gt;" class="s14" d="m622.1 175.1c0.8 3-2.6 6.2-5.3 3.6-2.2-2.2-5.5-5.7-8.2-7.4-2.8-1.7 0.9-4.8 5.3-3.6 4 1.1 7.4 4.3 8.2 7.4z"/>
				<g id="&lt;Group&gt;">
					<path id="&lt;Path&gt;" class="s4" d="m622.3 271.7c-1.4 0.5 1.2 2.9 1.2 2.9 0 0 27.9-9.5 45-19.4 0.1-2.1-1.4-3.2-1.4-3.2 0 0-20.7 10.9-44.8 19.7z"/>
					<path id="&lt;Path&gt;" class="s15" d="m622.3 271.7c-1.4 0.5 1.2 2.9 1.2 2.9 0 0 27.9-9.5 45-19.4 0.1-2.1-1.4-3.2-1.4-3.2 0 0-20.7 10.9-44.8 19.7z"/>
				</g>
				<g id="&lt;Group&gt;">
					<g id="&lt;Group&gt;">
						<path id="&lt;Path&gt;" class="s4" d="m642.9 189.1c5.5 2.8 10.7 5.8 15.9 9 2.6 1.7 5.2 3.3 7.7 5.1 2.6 1.8 5.1 3.7 7.6 5.7l0.9 0.8 1.2 1.1c0.9 0.7 1.5 1.4 2.1 2.1 0.6 0.7 1.2 1.4 1.7 2q0.8 1.1 1.5 2.1c2 2.6 3.6 5.3 5.2 8 3.1 5.4 5.7 10.9 7.9 16.7 1 2.6-0.3 5.5-2.9 6.5-2 0.7-4.1 0.2-5.4-1.3l-0.1-0.1c-4.1-4.2-7.9-8.7-11.8-12.9-3.8-4.1-7.8-8.4-11.1-10.3-4.5-2.8-9.6-5.6-14.6-8.4l-15.1-8.4c-4.9-2.7-6.6-8.8-3.9-13.6 2.6-4.7 8.5-6.5 13.2-4.1z"/>
						<path id="&lt;Path&gt;" class="s12" d="m642.9 189.1c5.5 2.8 10.7 5.8 15.9 9 2.6 1.7 5.2 3.3 7.7 5.1 2.6 1.8 5.1 3.7 7.6 5.7l0.9 0.8 1.2 1.1c0.9 0.7 1.5 1.4 2.1 2.1 0.6 0.7 1.2 1.4 1.7 2q0.8 1.1 1.5 2.1c2 2.6 3.6 5.3 5.2 8 3.1 5.4 5.7 10.9 7.9 16.7 1 2.6-0.3 5.5-2.9 6.5-2 0.7-4.1 0.2-5.4-1.3l-0.1-0.1c-4.1-4.2-7.9-8.7-11.8-12.9-3.8-4.1-7.8-8.4-11.1-10.3-4.5-2.8-9.6-5.6-14.6-8.4l-15.1-8.4c-4.9-2.7-6.6-8.8-3.9-13.6 2.6-4.7 8.5-6.5 13.2-4.1z"/>
					</g>
					<g id="&lt;Group&gt;">
						<path id="&lt;Path&gt;" class="s4" d="m699.5 251.5l-1.7-4.3c0 0-1-5.4-4.4-6.9l-10 1.5 0.3 0.9q0 0 0 0c0.9 2.1 0.2 5.7-0.7 8.6-0.9 2.9 0.6 3.3 1.9 2.7 0.7-0.3 1.4-1.6 2.2-3q0.5 1.1 1.3 2.1l2.4 3.4c1.1 1.4 3.1 1.8 4.6 0.9l2.7-1.8c1.4-0.9 2-2.6 1.4-4.1z"/>
						<path id="&lt;Path&gt;" class="s12" d="m699.5 251.5l-1.7-4.3c0 0-1-5.4-4.4-6.9l-10 1.5 0.3 0.9q0 0 0 0c0.9 2.1 0.2 5.7-0.7 8.6-0.9 2.9 0.6 3.3 1.9 2.7 0.7-0.3 1.4-1.6 2.2-3q0.5 1.1 1.3 2.1l2.4 3.4c1.1 1.4 3.1 1.8 4.6 0.9l2.7-1.8c1.4-0.9 2-2.6 1.4-4.1z"/>
					</g>
				</g>
				<g id="&lt;Group&gt;">
					<g id="&lt;Group&gt;">
						<path id="&lt;Path&gt;" class="s11" d="m634.5 212.1l-2.5 0.2-14.9 36.2q1.3 0.1 2.4-0.2c0 0 19.5-7.3 25.4-10-3.9-8.2-10.4-26.2-10.4-26.2z"/>
						<path id="&lt;Path&gt;" class="s14" d="m607.1 221.6c0.9 6.5 5.8 20.4 10 26.9 7.3-2.5 19.5-7.3 25.4-10-4-8.2-8.2-19.6-10.5-26.2-6.3 0.4-20 5.6-24.9 9.3z"/>
					</g>
					<path id="&lt;Path&gt;" class="s11" d="m622 229.4c-0.8 2.8-3.7 4.3-6.4 3.5-2.7-0.8-4.3-3.7-3.5-6.4 0.8-2.8 3.7-4.3 6.4-3.5 2.8 0.8 4.3 3.7 3.5 6.4z"/>
					<path id="&lt;Path&gt;" class="s16" d="m625.8 222.5c-0.2 0.9-1.2 1.4-2.1 1.2-0.9-0.3-1.4-1.2-1.1-2.1 0.3-0.9 1.2-1.4 2.1-1.2 0.9 0.3 1.4 1.2 1.1 2.1z"/>
					<path id="&lt;Path&gt;" class="s16" d="m630.3 220.8c-0.3 0.9-1.2 1.4-2.1 1.1-0.9-0.2-1.4-1.2-1.1-2.1 0.2-0.9 1.2-1.4 2.1-1.1 0.8 0.3 1.4 1.2 1.1 2.1z"/>
					<path id="&lt;Path&gt;" class="s17" d="m636.6 236.4l-18.5 7.3-1.1-3.7 18.5-7.3z"/>
				</g>
			</g>
		</g>
	</g>
	<g id="Rocket">
		<g id="&lt;Group&gt;">
			<path id="&lt;Path&gt;" class="s9" d="m534.5 514.3q-0.6 22.7-3.3 34.7-3.6 15.5-11 22.6-7.5 7.1-17.7 7.1-15.4 0-23.5-16.8-1.3-2.7-2.4-6.2c-11.4 9.8-22.1 20.5-31.9 32.1l-10.6 12.5q8.6 8.7 19.6 14.4 18.6 9.6 49 9.6 5.3 0 10.3-0.3c12.3-18.1 22.4-37.6 30.2-58l29.7-77.4z"/>
			<g id="&lt;Group&gt;">
				<g id="&lt;Group&gt;">
					<path id="&lt;Path&gt;" class="s13" d="m266.8 619.9c11.2 11.2 35 35 35 35l98-92.3c-33.7-12.8-99.5 23.8-133 57.3z"/>
					<path id="&lt;Path&gt;" class="s13" d="m388.8 742c-11.1-11.2-35-35-35-35l92.4-98c12.8 33.7-23.8 99.4-57.4 133z"/>
					<g id="&lt;Group&gt;">
						<path id="&lt;Path&gt;" class="s4" d="m522.8 521.4l38.2-73.6-73.6 38.2c-23.7 12.2-45.5 27.7-64.9 46l-125.5 118.1 61.6 61.7 118.2-125.5c18.2-19.4 33.7-41.3 46-64.9z"/>
						<path id="&lt;Path&gt;" class="s18" d="m522.8 521.4l38.2-73.6-73.6 38.2c-23.7 12.2-45.5 27.7-64.9 46l-125.5 118.1 61.6 61.7 118.2-125.5c18.2-19.4 33.7-41.3 46-64.9z"/>
					</g>
					<path id="&lt;Path&gt;" class="s14" d="m462.6 582.6c-10 10.1-26.4 10.1-36.4 0-10.1-10.1-10.1-26.4 0-36.5 10-10.1 26.4-10.1 36.4 0 10.1 10.1 10.1 26.4 0 36.5z"/>
					<path id="&lt;Path&gt;" class="s4" d="m456.1 576.1c-6.5 6.5-17 6.5-23.4 0-6.5-6.5-6.5-17 0-23.5 6.4-6.4 16.9-6.4 23.4 0 6.5 6.5 6.5 17 0 23.5z"/>
					<path id="&lt;Path&gt;" class="s11" d="m379.5 689.6l-60.4-60.3 49.5-46.6 57.4 57.5z"/>
					<g id="&lt;Group&gt;">
						<path id="&lt;Path&gt;" class="s4" d="m280.4 675.2c-45.2 3.7-60.1 32.6-65.3 71.1-2.6 19.6-3.7 39.5-20.2 51-4.6 3.1-2.3 10.3 3.3 10.1 60.7-1.9 89-31.6 92.5-44.1-1.2 7.9-3 14.1-5 19-2 5 3.5 9.6 8.1 6.8 17-10.7 38.4-30.3 39.8-62.2-12.6-17.7-53.2-51.7-53.2-51.7z"/>
						<path id="&lt;Path&gt;" class="s10" d="m280.4 675.2c-45.2 3.7-60.1 32.6-65.3 71.1-2.6 19.6-3.7 39.5-20.2 51-4.6 3.1-2.3 10.3 3.3 10.1 60.7-1.9 89-31.6 92.5-44.1-1.2 7.9-3 14.1-5 19-2 5 3.5 9.6 8.1 6.8 17-10.7 38.4-30.3 39.8-62.2-12.6-17.7-53.2-51.7-53.2-51.7z"/>
					</g>
					<path id="&lt;Path&gt;" class="s4" d="m340.6 740.6l-72.4-72.4 38.5-8.3 42.2 42.1z"/>
				</g>
			</g>
		</g>
	</g>
</svg>